<svg width="25" height="24" viewBox="0 0 25 24" fill="none" xmlns="http://www.w3.org/2000/svg">
<path d="M12.5002 1.33337C6.6335 1.33337 1.8335 6.13337 1.8335 12C1.8335 17.8667 6.6335 22.6667 12.5002 22.6667C18.3668 22.6667 23.1668 17.8667 23.1668 12C23.1668 6.13337 18.4202 1.33337 12.5002 1.33337ZM17.4077 16.7467C17.1944 17.0658 16.8211 17.1734 16.5002 16.96C13.9935 15.4134 10.8468 15.0925 7.11261 15.9458C6.74105 16.0543 6.42016 15.7867 6.3135 15.4667C6.20683 15.0925 6.4735 14.7734 6.7935 14.6667C10.8468 13.7592 14.3668 14.1334 17.1402 15.84C17.5135 16 17.5659 16.4258 17.4077 16.7467ZM18.6877 13.8134C18.4202 14.1867 17.9402 14.3467 17.5659 14.08C14.6868 12.32 10.3135 11.7867 6.9535 12.8534C6.52772 12.96 6.04683 12.7467 5.94016 12.32C5.8335 11.8934 6.04683 11.4125 6.4735 11.3058C10.3668 10.1334 15.1668 10.7209 18.4735 12.7467C18.7944 12.9076 18.9535 13.44 18.6877 13.8134ZM18.7944 10.8267C15.3802 8.80004 9.6735 8.58671 6.42016 9.60093C5.88683 9.76004 5.3535 9.44004 5.1935 8.96004C5.0335 8.42582 5.3535 7.89337 5.8335 7.73249C9.62016 6.61249 15.8602 6.82582 19.8077 9.17337C20.2868 9.44004 20.4468 10.08 20.1802 10.56C19.9144 10.9343 19.2735 11.0925 18.7944 10.8267Z" fill="white"/>
</svg>
