<svg width="36" height="36" viewBox="0 0 36 36" fill="none" xmlns="http://www.w3.org/2000/svg">
<path fill-rule="evenodd" clip-rule="evenodd" d="M15.4385 20.6549L17.5442 18.5492L19.1639 20.1689C20.1503 21.1553 20.9456 21.4647 22.4034 20.3309C22.7273 20.007 23.2942 19.602 23.9421 19.926L27.0196 22.0316C27.9104 22.7605 27.9832 23.1585 27.7485 23.7323C26.2917 27.2931 21.6745 26.7288 15.4385 20.6549ZM15.4385 20.6549C9.36457 14.4189 8.80025 9.80171 12.3611 8.34492C12.9349 8.11022 13.3329 8.18295 14.0618 9.0738L16.1674 12.1513C16.4914 12.7992 16.0864 13.3661 15.7625 13.69C14.6287 15.1478 14.938 15.9431 15.9245 16.9295L17.5442 18.5492L15.4385 20.6549Z" fill="#781E41"/>
</svg>
