<svg width="36" height="36" viewBox="0 0 36 36" fill="none" xmlns="http://www.w3.org/2000/svg">
<path fill-rule="evenodd" clip-rule="evenodd" d="M12.2432 16.5946C10.9787 15.7184 10.2208 15.1914 9.96935 15.014C9.51095 14.7034 9.07822 14.2763 8.6716 13.7328C8.26495 13.1893 8.06152 12.6845 8.06152 12.2186C8.06152 11.6419 8.21495 11.1612 8.52179 10.7767C8.82868 10.3922 9.26684 10.2 9.83621 10.2H26.164C26.6445 10.2 27.0606 10.3737 27.4118 10.7213C27.7631 11.0688 27.9388 11.4866 27.9388 11.9748C27.9388 12.5589 27.7577 13.1172 27.3952 13.6494C27.0329 14.1819 26.5819 14.6368 26.0421 15.0137C23.2618 16.9439 21.5312 18.1456 20.851 18.6187C20.7771 18.6706 20.6198 18.7832 20.3795 18.9571C20.1391 19.131 19.9396 19.2716 19.7806 19.3788C19.6216 19.4859 19.4293 19.606 19.2038 19.7392C18.9784 19.872 18.7656 19.9721 18.566 20.0383C18.3663 20.105 18.1814 20.1381 18.0114 20.1381H18.0002H17.989C17.819 20.1381 17.6341 20.1051 17.4344 20.0383C17.2348 19.9721 17.0221 19.8721 16.7966 19.7392C16.5709 19.6061 16.3787 19.4859 16.2197 19.3788C16.0608 19.2716 15.8611 19.131 15.6207 18.9571C15.3804 18.7834 15.2234 18.6706 15.1494 18.6187C14.4765 18.1456 13.5078 17.4709 12.2432 16.5946ZM21.3057 20.0276C22.5627 19.1179 24.4042 17.8422 26.8295 16.2007C27.2512 15.9124 27.6208 15.5905 27.9389 15.2357V24.0427C27.9389 24.5311 27.7652 24.9486 27.4176 25.2962C27.07 25.6439 26.6521 25.8177 26.1642 25.8177H9.83633C9.34824 25.8177 8.93035 25.6439 8.58283 25.2962C8.23523 24.9487 8.06152 24.5311 8.06152 24.0427V15.2357C8.3869 15.598 8.76034 15.9199 9.18195 16.2007C11.8588 18.0198 13.6964 19.2956 14.6948 20.0276C15.1162 20.338 15.4583 20.5804 15.7207 20.7541C15.9832 20.9279 16.3327 21.1053 16.7689 21.2864C17.2052 21.4678 17.6119 21.5582 17.9891 21.5582H18.0002H18.0115C18.3887 21.5582 18.7953 21.4678 19.2315 21.2864C19.6679 21.1053 20.0171 20.9279 20.2797 20.7541C20.5423 20.5804 20.8842 20.338 21.3057 20.0276Z" fill="#781E41"/>
</svg>
