<svg width="17" height="17" viewBox="0 0 17 17" fill="none" xmlns="http://www.w3.org/2000/svg">
<path fill-rule="evenodd" clip-rule="evenodd" d="M12.3216 7.26429C12.5316 7.47428 12.3829 7.83333 12.0859 7.83333L2.50016 7.83333C2.13197 7.83333 1.8335 8.1318 1.8335 8.49999C1.8335 8.86818 2.13197 9.16666 2.50016 9.16666L12.086 9.16666C12.3829 9.16666 12.5316 9.52571 12.3217 9.7357L8.69542 13.3619C8.43507 13.6223 8.43507 14.0444 8.69542 14.3047C8.95577 14.5651 9.37788 14.5651 9.63823 14.3047L14.9716 8.9714C15.2319 8.71105 15.2319 8.28894 14.9716 8.0286L9.63823 2.69526C9.37788 2.43491 8.95577 2.43491 8.69542 2.69526C8.43507 2.95561 8.43507 3.37772 8.69542 3.63807L12.3216 7.26429Z" fill="#781E41"/>
</svg>
