<svg width="24" height="24" viewBox="0 0 24 24" fill="none" xmlns="http://www.w3.org/2000/svg">
<path fill-rule="evenodd" clip-rule="evenodd" d="M4.59961 9.99998C4.59961 7.75014 4.59961 6.62522 5.17256 5.83662C5.3576 5.58194 5.58157 5.35796 5.83625 5.17292C6.62485 4.59998 7.74977 4.59998 9.99961 4.59998H13.9996C16.2494 4.59998 17.3744 4.59998 18.163 5.17292C18.4176 5.35796 18.6416 5.58194 18.8267 5.83662C19.3996 6.62522 19.3996 7.75014 19.3996 9.99997V14C19.3996 16.2498 19.3996 17.3747 18.8267 18.1633C18.6416 18.418 18.4176 18.642 18.163 18.827C17.3744 19.4 16.2494 19.4 13.9996 19.4H9.99961C7.74977 19.4 6.62485 19.4 5.83625 18.827C5.58157 18.642 5.3576 18.418 5.17256 18.1633C4.59961 17.3747 4.59961 16.2498 4.59961 14V9.99998ZM11.9995 8.08233C9.83601 8.08233 8.08188 9.83646 8.08188 12C8.08188 14.1635 9.83601 15.9176 11.9995 15.9176C14.163 15.9176 15.9172 14.1635 15.9172 12C15.9172 9.83646 14.163 8.08233 11.9995 8.08233ZM11.9995 14.4485C10.6499 14.4485 9.551 13.3496 9.551 12C9.551 10.6494 10.6499 9.55145 11.9995 9.55145C13.3492 9.55145 14.4481 10.6494 14.4481 12C14.4481 13.3496 13.3492 14.4485 11.9995 14.4485ZM16.7331 7.78851C16.7331 8.07682 16.4994 8.31054 16.2111 8.31054C15.9228 8.31054 15.6891 8.07682 15.6891 7.78851C15.6891 7.5002 15.9228 7.26648 16.2111 7.26648C16.4994 7.26648 16.7331 7.5002 16.7331 7.78851Z" fill="#E4D7DD"/>
</svg>
