<svg width="30" height="24" viewBox="0 0 30 24" fill="none" xmlns="http://www.w3.org/2000/svg">
<path fill-rule="evenodd" clip-rule="evenodd" d="M17.68 0.201675C19.2858 0.473995 20.5136 0.894476 22.1832 1.74376C24.7746 3.06216 26.9542 4.94664 28.497 7.20264C28.9768 7.9044 29.12 8.26792 29.12 8.78376C29.12 9.34456 29.027 9.54136 28.5486 9.99256C28.0963 10.4191 27.844 10.5314 27.3381 10.5314C26.9866 10.5314 26.5667 10.4607 26.4051 10.3742C26.2435 10.2878 25.8389 9.83768 25.5061 9.37416C25.1731 8.91063 24.447 8.07656 23.8925 7.52056C22.249 5.87272 20.5538 4.85608 18.3493 4.19624C16.5341 3.65288 14.8082 3.46776 13.3186 3.65672C9.86207 4.09495 7.19823 5.39928 4.95183 7.75304C4.37535 8.3572 3.73839 9.12312 3.53647 9.45528C3.10159 10.1703 2.47583 10.5314 1.67199 10.5314C1.22111 10.5314 0.963993 10.4074 0.543993 9.98744C0.0915127 9.53496 -7.62939e-06 9.326 -7.62939e-06 8.74536C-7.62939e-06 8.21656 0.131832 7.85144 0.543192 7.24056C1.13295 6.36472 2.49279 4.8172 3.31695 4.08376C4.56975 2.96888 6.66303 1.72504 8.49535 1.00696C9.25183 0.710475 10.5651 0.356235 11.4136 0.219755C13.1891 -0.0660052 16.0531 -0.074165 17.68 0.201675ZM16.8 6.39223C17.8325 6.56039 19.9602 7.53879 20.9702 8.30999C21.8013 8.9444 22.8275 10.035 23.4203 10.9138C23.651 11.2561 23.8397 11.7601 23.8394 12.0338C23.8384 12.8076 23.3133 13.5247 22.5882 13.7418C21.6248 14.0305 20.928 13.7311 20.1674 12.7015C19.3664 11.6172 18.1274 10.7329 16.7245 10.2442C15.7792 9.91496 15.4008 9.86712 14.2445 9.93032C13.3706 9.97799 12.5456 10.1337 11.9499 10.3634C10.865 10.7817 9.28271 12.0401 8.71903 12.933C8.43759 13.3788 8.14735 13.6103 7.70303 13.7434C6.85343 13.998 6.00127 13.7126 5.58815 13.035C5.02175 12.106 5.24063 11.2886 6.44207 9.84552C7.80975 8.2028 10.3618 6.70024 12.3256 6.38168C13.5394 6.18472 15.5558 6.18952 16.8 6.39223Z" fill="#781E41"/>
<circle r="5.6" transform="matrix(-1 0 0 1 14.56 18.3998)" fill="#781E41"/>
<circle r="2.88" transform="matrix(-1 0 0 1 14.56 18.4005)" fill="#F5F5F5"/>
</svg>
