<svg width="25" height="24" viewBox="0 0 25 24" fill="none" xmlns="http://www.w3.org/2000/svg">
<path fill-rule="evenodd" clip-rule="evenodd" d="M3.49962 3.75037C3.91363 3.75037 4.24925 4.08598 4.24925 4.49999V19.4928C4.24925 19.9068 3.91363 20.2425 3.49962 20.2425C3.08562 20.2425 2.75 19.9068 2.75 19.4928V4.49999C2.75 4.08598 3.08562 3.75037 3.49962 3.75037Z" fill="black"/>
<path fill-rule="evenodd" clip-rule="evenodd" d="M21.4996 8.25037C21.9136 8.25037 22.2492 8.58598 22.2492 8.99999V19.5C22.2492 19.914 21.9136 20.2496 21.4996 20.2496C21.0856 20.2496 20.75 19.914 20.75 19.5V8.99999C20.75 8.58598 21.0856 8.25037 21.4996 8.25037Z" fill="black"/>
<path fill-rule="evenodd" clip-rule="evenodd" d="M5.75 1.49999C5.75 1.08598 6.08562 0.750366 6.49962 0.750366H13.9996C14.4136 0.750366 14.7493 1.08598 14.7493 1.49999C14.7493 1.914 14.4136 2.24962 13.9996 2.24962H6.49962C6.08562 2.24962 5.75 1.914 5.75 1.49999Z" fill="black"/>
<path fill-rule="evenodd" clip-rule="evenodd" d="M5.75 22.5C5.75 22.086 6.08562 21.7504 6.49962 21.7504H18.4996C18.9136 21.7504 19.2493 22.086 19.2493 22.5C19.2493 22.914 18.9136 23.2496 18.4996 23.2496H6.49962C6.08562 23.2496 5.75 22.914 5.75 22.5Z" fill="black"/>
<path fill-rule="evenodd" clip-rule="evenodd" d="M21.4955 18.7504C21.9095 18.7481 22.247 19.0819 22.2492 19.4959C22.2547 20.492 21.7635 21.4247 21.0949 22.0923C20.4262 22.76 19.4932 23.2496 18.4996 23.2496C18.0856 23.2496 17.75 22.914 17.75 22.5C17.75 22.086 18.0856 21.7504 18.4996 21.7504C19.006 21.7504 19.5772 21.4891 20.0355 21.0314C20.494 20.5736 20.7528 20.0062 20.75 19.5041C20.7477 19.0901 21.0815 18.7526 21.4955 18.7504Z" fill="black"/>
<path fill-rule="evenodd" clip-rule="evenodd" d="M3.50038 18.7504C3.08637 18.7504 2.75075 19.086 2.75075 19.5C2.75075 20.4938 3.2401 21.4248 3.90781 22.0926C4.57552 22.7603 5.50657 23.2496 6.50038 23.2496C6.91438 23.2496 7.25 22.914 7.25 22.5C7.25 22.086 6.91438 21.7504 6.50038 21.7504C5.99418 21.7504 5.42523 21.4897 4.96794 21.0324C4.51065 20.5751 4.25 20.0062 4.25 19.5C4.25 19.086 3.91438 18.7504 3.50038 18.7504Z" fill="black"/>
<path fill-rule="evenodd" clip-rule="evenodd" d="M3.50037 5.24744C3.08637 5.24744 2.75075 4.91182 2.75075 4.49781C2.75075 3.50284 3.24211 2.5801 3.90991 1.91758C4.57802 1.25475 5.50246 0.772401 6.48368 0.750549C6.89759 0.741332 7.24059 1.06939 7.24981 1.4833C7.25903 1.8972 6.93097 2.24021 6.51706 2.24943C5.99829 2.26098 5.42272 2.52863 4.96583 2.98191C4.50863 3.43549 4.25 3.99496 4.25 4.49781C4.25 4.91182 3.91438 5.24744 3.50037 5.24744Z" fill="black"/>
<path fill-rule="evenodd" clip-rule="evenodd" d="M13.4701 0.969399C13.7631 0.676944 14.2378 0.677416 14.5302 0.970454L22.022 8.47718C22.3145 8.77022 22.314 9.24486 22.021 9.53731C21.7279 9.82977 21.2533 9.8293 20.9608 9.53626L13.469 2.02953C13.1766 1.73649 13.177 1.26185 13.4701 0.969399Z" fill="black"/>
<path fill-rule="evenodd" clip-rule="evenodd" d="M13.9981 5.25037C13.5841 5.25165 13.2495 5.5883 13.2508 6.00231C13.2538 6.9918 13.745 7.9217 14.4114 8.5891C15.0778 9.2565 16.0076 9.74962 17.0004 9.74962C17.4144 9.74962 17.75 9.414 17.75 8.99999C17.75 8.58599 17.4144 8.25037 17.0004 8.25037C16.4992 8.25037 15.9313 7.9894 15.4723 7.52976C15.0134 7.07012 14.7515 6.50002 14.75 5.99767C14.7487 5.58367 14.4121 5.24909 13.9981 5.25037Z" fill="black"/>
<path fill-rule="evenodd" clip-rule="evenodd" d="M13.9996 0.750366C14.4136 0.750366 14.7492 1.08598 14.7492 1.49999V5.99999C14.7492 6.414 14.4136 6.74962 13.9996 6.74962C13.5856 6.74962 13.25 6.414 13.25 5.99999V1.49999C13.25 1.08598 13.5856 0.750366 13.9996 0.750366Z" fill="black"/>
<path fill-rule="evenodd" clip-rule="evenodd" d="M16.25 8.99999C16.25 8.58598 16.5856 8.25037 16.9996 8.25037H21.4996C21.9136 8.25037 22.2492 8.58598 22.2492 8.99999C22.2492 9.414 21.9136 9.74962 21.4996 9.74962H16.9996C16.5856 9.74962 16.25 9.414 16.25 8.99999Z" fill="black"/>
<path fill-rule="evenodd" clip-rule="evenodd" d="M5.75 19.5C5.75 19.0858 6.08579 18.75 6.5 18.75H11C11.4142 18.75 11.75 19.0858 11.75 19.5C11.75 19.9142 11.4142 20.25 11 20.25H6.5C6.08579 20.25 5.75 19.9142 5.75 19.5Z" fill="black"/>
<path fill-rule="evenodd" clip-rule="evenodd" d="M5.75 16.5C5.75 16.0858 6.08579 15.75 6.5 15.75H14C14.4142 15.75 14.75 16.0858 14.75 16.5C14.75 16.9142 14.4142 17.25 14 17.25H6.5C6.08579 17.25 5.75 16.9142 5.75 16.5Z" fill="black"/>
<path fill-rule="evenodd" clip-rule="evenodd" d="M5.75 13.5C5.75 13.0858 6.08579 12.75 6.5 12.75H11C11.4142 12.75 11.75 13.0858 11.75 13.5C11.75 13.9142 11.4142 14.25 11 14.25H6.5C6.08579 14.25 5.75 13.9142 5.75 13.5Z" fill="black"/>
</svg>
