<svg width="291" height="344" viewBox="0 0 291 344" fill="none" xmlns="http://www.w3.org/2000/svg">
<g opacity="0.1">
<path fill-rule="evenodd" clip-rule="evenodd" d="M161.685 64.651L226.229 129.463L257.937 97.6398C275.377 80.1374 290.161 65.8178 290.793 65.8178C291.424 65.8178 306.208 80.1374 323.648 97.6398L355.356 129.463L419.904 64.6486L290.788 -65L161.685 64.651ZM64.5493 162.179L0 227.002L64.5459 291.814L129.118 227.006L193.661 291.814L258.808 226.429L194.544 161.891C159.198 126.396 130.014 97.3536 129.69 97.3536C129.365 97.3536 100.052 126.524 64.5493 162.179Z" fill="#290A19"/>
<path fill-rule="evenodd" clip-rule="evenodd" d="M322.781 225.837L387.325 290.649L419.033 258.826C436.473 241.323 451.257 227.003 451.889 227.003C452.52 227.003 467.304 241.323 484.744 258.826L516.452 290.649L581 225.834L451.884 96.1857L322.781 225.837ZM225.645 323.364L161.096 388.188L225.642 453L290.214 388.191L354.757 453L419.904 387.614L355.64 323.077C320.294 287.582 291.11 258.539 290.786 258.539C290.461 258.539 261.148 287.71 225.645 323.364Z" fill="#C97FA1"/>
</g>
</svg>
