<svg width="16" height="16" viewBox="0 0 16 16" fill="none" xmlns="http://www.w3.org/2000/svg">
<path fill-rule="evenodd" clip-rule="evenodd" d="M11.8216 6.76429C12.0316 6.97428 11.8829 7.33333 11.5859 7.33333L2.00016 7.33333C1.63197 7.33333 1.3335 7.6318 1.3335 7.99999C1.3335 8.36818 1.63197 8.66666 2.00016 8.66666L11.586 8.66666C11.8829 8.66666 12.0316 9.02571 11.8217 9.2357L8.19542 12.8619C7.93507 13.1223 7.93507 13.5444 8.19542 13.8047C8.45577 14.0651 8.87788 14.0651 9.13823 13.8047L14.4716 8.4714C14.7319 8.21105 14.7319 7.78894 14.4716 7.5286L9.13823 2.19526C8.87788 1.93491 8.45577 1.93491 8.19542 2.19526C7.93507 2.45561 7.93507 2.87772 8.19542 3.13807L11.8216 6.76429Z" fill="#781E41"/>
</svg>
