<svg width="24" height="24" viewBox="0 0 24 24" fill="none" xmlns="http://www.w3.org/2000/svg">
<path d="M12.9819 20.3999C13.2028 20.3999 13.3819 20.2208 13.3819 19.9999V13.1366C13.3819 12.9157 13.561 12.7366 13.7819 12.7366H15.5651C15.7665 12.7366 15.9365 12.5868 15.9619 12.387L16.2398 10.2005C16.2702 9.96152 16.0839 9.75009 15.843 9.75009H13.7819C13.561 9.75009 13.3819 9.57101 13.3819 9.35009V7.8433C13.3819 6.97865 13.6186 6.38935 14.8409 6.38935L16 6.38881C16.2208 6.3887 16.3998 6.20965 16.3998 5.98881V4.06735C16.3998 3.86703 16.2518 3.6987 16.0523 3.68118C15.6242 3.64359 14.9168 3.59998 14.1282 3.59998C11.8807 3.59998 10.3419 4.9917 10.3419 7.54767V9.35017C10.3419 9.57109 10.1628 9.75018 9.94191 9.75018H8.1998C7.97889 9.75018 7.7998 9.92926 7.7998 10.1502V12.3367C7.7998 12.5576 7.97889 12.7367 8.1998 12.7367H9.94183C10.1627 12.7367 10.3418 12.9158 10.3418 13.1367V20C10.3418 20.2209 10.5209 20.4 10.7418 20.4L12.9819 20.3999Z" fill="#E4D7DD"/>
</svg>
