<svg width="24" height="24" viewBox="0 0 24 24" fill="none" xmlns="http://www.w3.org/2000/svg">
<path d="M18.3878 18.3367C17.5776 18.3175 16.7867 18.3175 15.9766 18.3367C15.803 18.3367 15.7644 18.2982 15.7644 18.1246C15.7644 16.6971 15.7644 15.2504 15.7644 13.823C15.7644 13.4951 15.7451 13.1672 15.6487 12.8585C15.3593 11.8555 14.202 11.489 13.3725 12.1641C12.9288 12.5113 12.7552 12.9935 12.7552 13.5722C12.7552 14.9225 12.7552 16.2728 12.7552 17.623C12.7552 17.7966 12.7359 17.9702 12.7552 18.1631C12.7728 18.3034 12.7106 18.3481 12.5977 18.3405C12.5741 18.3389 12.5505 18.3367 12.5268 18.3367C11.7097 18.3367 10.9109 18.3367 10.0933 18.3367C9.93897 18.3367 9.90039 18.2982 9.90039 18.1438C9.91968 16.9286 9.91968 15.7134 9.91968 14.4788C9.91968 12.9743 9.91968 11.4697 9.90039 9.98439C9.90039 9.81078 9.93897 9.7722 10.0933 9.7722C10.9227 9.7722 11.7329 9.7722 12.5623 9.7722C12.7167 9.7722 12.7552 9.81078 12.7552 9.9651C12.7552 10.2362 12.7552 10.5072 12.7552 10.8175C12.7552 10.866 12.8153 10.8888 12.8495 10.8546V10.8546C12.8519 10.8522 12.8527 10.851 12.8546 10.8482C13.6067 9.75212 14.6665 9.44453 15.9187 9.63717C17.3654 9.86865 18.2913 10.8717 18.5228 12.4149C18.5807 12.7814 18.6 13.1479 18.6 13.5144C18.6 15.0575 18.6 16.5814 18.6 18.1246C18.6 18.2789 18.5614 18.3367 18.3878 18.3367Z" fill="#E4D7DD"/>
<path d="M8.35704 14.0544C8.35704 15.4047 8.35704 16.755 8.35704 18.1052C8.35704 18.2788 8.31846 18.3367 8.14486 18.3367C7.3347 18.3174 6.52454 18.3367 5.71438 18.3367C5.56006 18.3367 5.52148 18.2981 5.52148 18.1438C5.52148 15.424 5.52148 12.6849 5.52148 9.96505C5.52148 9.83002 5.56006 9.77216 5.71438 9.77216C6.54383 9.77216 7.37328 9.77216 8.20273 9.77216C8.37633 9.77216 8.39562 9.83002 8.39562 9.98434C8.35704 11.3346 8.35704 12.6849 8.35704 14.0544Z" fill="#E4D7DD"/>
<path d="M8.49227 7.53457C8.29938 8.30615 7.50851 8.74981 6.6019 8.59549C5.63742 8.44117 5.09732 7.49599 5.44453 6.57009C5.676 5.99141 6.2354 5.64419 6.94911 5.66348C8.02932 5.64419 8.74304 6.51222 8.49227 7.53457Z" fill="#E4D7DD"/>
</svg>
