<svg width="48" height="48" viewBox="0 0 48 48" fill="none" xmlns="http://www.w3.org/2000/svg">
<path fill-rule="evenodd" clip-rule="evenodd" d="M16.0183 16.0093L20.0176 20.0132L21.9823 18.0472C23.0629 16.966 23.979 16.0814 24.0181 16.0814C24.0573 16.0814 24.9733 16.966 26.0539 18.0472L28.0186 20.0132L32.0182 16.0092L24.0178 8L16.0183 16.0093ZM9.99962 22.0342L6 26.0387L9.9994 30.0426L14.0005 26.039L17.9996 30.0426L22.0363 26.0033L18.0543 22.0164C15.8642 19.8237 14.056 18.0296 14.0358 18.0296C14.0157 18.0296 12.1995 19.8316 9.99962 22.0342Z" fill="#290A19"/>
<path fill-rule="evenodd" clip-rule="evenodd" d="M26.0002 25.9667L29.9995 29.9706L31.9642 28.0047C33.0448 26.9234 33.9608 26.0388 34 26.0388C34.0391 26.0388 34.9552 26.9234 36.0358 28.0047L38.0005 29.9706L42 25.9666L33.9997 17.9574L26.0002 25.9667ZM19.9815 31.9916L15.9819 35.9962L19.9812 40L23.9823 35.9964L27.9815 40L32.0182 35.9607L28.0362 31.9739C25.8461 29.7811 24.0378 27.987 24.0177 27.987C23.9976 27.987 22.1813 29.789 19.9815 31.9916Z" fill="#C97FA1"/>
</svg>
