<svg width="56" height="57" viewBox="0 0 56 57" fill="none" xmlns="http://www.w3.org/2000/svg">
<path fill-rule="evenodd" clip-rule="evenodd" d="M18.2446 18.9911L23.1327 23.9959L25.5339 21.5385C26.8547 20.187 27.9743 19.0813 28.0222 19.0813C28.07 19.0813 29.1896 20.187 30.5104 21.5385L32.9116 23.9959L37.8 18.991L28.0218 8.97949L18.2446 18.9911ZM10.8884 26.5222L6 31.5279L10.8882 36.5327L15.7783 31.5282L20.6662 36.5327L25.5999 31.4836L20.7331 26.5C18.0563 23.7591 15.8462 21.5165 15.8216 21.5165C15.797 21.5165 13.5771 23.769 10.8884 26.5222Z" fill="#FFFAFC"/>
<path fill-rule="evenodd" clip-rule="evenodd" d="M30.4447 31.4379L35.3327 36.4427L37.734 33.9853C39.0547 32.6338 40.1744 31.528 40.2222 31.528C40.27 31.528 41.3897 32.6338 42.7104 33.9853L45.1117 36.4427L50 31.4377L40.2218 21.4263L30.4447 31.4379ZM23.0885 38.969L18.2 43.9747L23.0882 48.9795L27.9784 43.975L32.8663 48.9795L37.8 43.9304L32.9331 38.9468C30.2563 36.2059 28.0462 33.9632 28.0216 33.9632C27.997 33.9632 25.7772 36.2158 23.0885 38.969Z" fill="#C97FA1"/>
</svg>
