<svg width="256" height="228" viewBox="0 0 256 228" fill="none" xmlns="http://www.w3.org/2000/svg">
<path fill-rule="evenodd" clip-rule="evenodd" d="M81.8836 69.0525L104.991 91.574L116.342 80.5158C122.586 74.4338 127.879 69.4579 128.105 69.4579C128.331 69.4579 133.624 74.4338 139.867 80.5158L151.219 91.574L174.327 69.0516L128.103 24L81.8836 69.0525ZM47.1089 102.942L24 125.468L47.1076 147.99L70.2249 125.469L93.3313 147.99L116.654 125.269L93.6473 102.843C80.9933 90.5082 70.5455 80.4163 70.4293 80.4163C70.3131 80.4163 59.8191 90.5529 47.1089 102.942Z" fill="white"/>
<path fill-rule="evenodd" clip-rule="evenodd" d="M139.557 125.063L162.664 147.584L174.015 136.526C180.259 130.444 185.552 125.468 185.778 125.468C186.004 125.468 191.297 130.444 197.54 136.526L208.892 147.584L232 125.062L185.776 80.0105L139.557 125.063ZM104.782 158.953L81.6729 181.478L104.781 204L127.898 181.48L151.004 204L174.327 181.279L151.32 158.853C138.666 146.519 128.218 136.427 128.102 136.427C127.986 136.427 117.492 146.563 104.782 158.953Z" fill="#C97FA1"/>
</svg>
