<svg width="65" height="64" viewBox="0 0 65 64" fill="none" xmlns="http://www.w3.org/2000/svg">
<rect x="13.5" y="12" width="37" height="40" fill="white"/>
<g filter="url(#filter0_i_82_1169)">
<path d="M64.5 32C64.5 49.675 50.175 64 32.5 64C14.825 64 0.5 49.675 0.5 32C0.5 14.325 14.825 0 32.5 0C50.175 0 64.5 14.325 64.5 32ZM22.5 21V43C22.5 44.0875 23.0875 45.0875 24.0375 45.6125C24.975 46.15 26.1375 46.125 27.0625 45.5625L45.0625 34.5625C45.95 34.0125 46.5 33.05 46.5 32C46.5 30.95 45.95 29.9875 45.0625 29.4375L27.0625 18.4375C26.1375 17.7625 24.975 17.85 24.0375 18.3875C23.0875 18.9125 22.5 19.9125 22.5 21Z" fill="#781E41"/>
</g>
<defs>
<filter id="filter0_i_82_1169" x="0.5" y="0" width="64" height="64" filterUnits="userSpaceOnUse" color-interpolation-filters="sRGB">
<feFlood flood-opacity="0" result="BackgroundImageFix"/>
<feBlend mode="normal" in="SourceGraphic" in2="BackgroundImageFix" result="shape"/>
<feColorMatrix in="SourceAlpha" type="matrix" values="0 0 0 0 0 0 0 0 0 0 0 0 0 0 0 0 0 0 127 0" result="hardAlpha"/>
<feOffset/>
<feGaussianBlur stdDeviation="3.5"/>
<feComposite in2="hardAlpha" operator="arithmetic" k2="-1" k3="1"/>
<feColorMatrix type="matrix" values="0 0 0 0 0 0 0 0 0 0 0 0 0 0 0 0 0 0 0.15 0"/>
<feBlend mode="normal" in2="shape" result="effect1_innerShadow_82_1169"/>
</filter>
</defs>
</svg>
