<svg width="64" height="64" viewBox="0 0 64 64" fill="none" xmlns="http://www.w3.org/2000/svg">
<path d="M17.3332 26.6666C16.7386 26.6666 16.1679 26.7573 15.5999 26.84C15.7839 26.2213 15.9732 25.592 16.2772 25.0266C16.5812 24.2053 17.0559 23.4933 17.5279 22.776C17.9226 22 18.6186 21.4746 19.1306 20.8106C19.6666 20.1653 20.3972 19.736 20.9759 19.2C21.5439 18.64 22.2879 18.36 22.8799 17.9653C23.4986 17.6106 24.0372 17.2186 24.6132 17.032L26.0506 16.44L27.3146 15.9146L26.0212 10.7466L24.4292 11.1306C23.9199 11.2586 23.2986 11.408 22.5919 11.5866C21.8692 11.72 21.0986 12.0853 20.2399 12.4186C19.3919 12.7973 18.4106 13.0533 17.4986 13.6613C16.5812 14.2426 15.5226 14.728 14.5892 15.5066C13.6852 16.3093 12.5946 17.0053 11.7892 18.0266C10.9092 18.9813 10.0399 19.984 9.36523 21.1253C8.5839 22.2133 8.05323 23.408 7.49323 24.5893C6.98657 25.7706 6.57857 26.9786 6.24523 28.152C5.61323 30.504 5.33057 32.7386 5.22123 34.6506C5.13057 36.5653 5.1839 38.1573 5.2959 39.3093C5.3359 39.8533 5.41057 40.3813 5.4639 40.7466L5.53057 41.1946L5.5999 41.1786C6.0742 43.3942 7.16604 45.4302 8.74914 47.0511C10.3322 48.6721 12.3419 49.8117 14.5456 50.3382C16.7493 50.8647 19.0571 50.7565 21.2019 50.0262C23.3467 49.2959 25.241 47.9733 26.6655 46.2114C28.0901 44.4495 28.9867 42.3203 29.2517 40.0701C29.5167 37.8199 29.1392 35.5407 28.1629 33.496C27.1866 31.4514 25.6515 29.7249 23.735 28.5164C21.8185 27.3078 19.599 26.6665 17.3332 26.6666ZM46.6666 26.6666C46.0719 26.6666 45.5012 26.7573 44.9332 26.84C45.1172 26.2213 45.3066 25.592 45.6106 25.0266C45.9146 24.2053 46.3892 23.4933 46.8612 22.776C47.2559 22 47.9519 21.4746 48.4639 20.8106C48.9999 20.1653 49.7306 19.736 50.3092 19.2C50.8772 18.64 51.6212 18.36 52.2132 17.9653C52.8319 17.6106 53.3706 17.2186 53.9466 17.032L55.3839 16.44L56.6479 15.9146L55.3546 10.7466L53.7626 11.1306C53.2532 11.2586 52.6319 11.408 51.9252 11.5866C51.2026 11.72 50.4319 12.0853 49.5732 12.4186C48.7279 12.8 47.7439 13.0533 46.8319 13.664C45.9146 14.2453 44.8559 14.7306 43.9226 15.5093C43.0186 16.312 41.9279 17.008 41.1226 18.0266C40.2426 18.9813 39.3732 19.984 38.6986 21.1253C37.9172 22.2133 37.3866 23.408 36.8266 24.5893C36.3199 25.7706 35.9119 26.9786 35.5786 28.152C34.9466 30.504 34.6639 32.7386 34.5546 34.6506C34.4639 36.5653 34.5172 38.1573 34.6292 39.3093C34.6692 39.8533 34.7439 40.3813 34.7972 40.7466L34.8639 41.1946L34.9332 41.1786C35.4075 43.3942 36.4994 45.4302 38.0825 47.0511C39.6656 48.6721 41.6752 49.8117 43.8789 50.3382C46.0827 50.8647 48.3904 50.7565 50.5352 50.0262C52.6801 49.2959 54.5743 47.9733 55.9989 46.2114C57.4234 44.4495 58.32 42.3203 58.585 40.0701C58.85 37.8199 58.4725 35.5407 57.4963 33.496C56.52 31.4514 54.9848 29.7249 53.0683 28.5164C51.1518 27.3078 48.9323 26.6665 46.6666 26.6666Z" fill="#FFFAFC"/>
</svg>
