<svg width="64" height="65" viewBox="0 0 64 65" fill="none" xmlns="http://www.w3.org/2000/svg">
<path d="M17.3332 27.6461C16.7386 27.6461 16.1679 27.7367 15.5999 27.8194C15.7839 27.2007 15.9732 26.5714 16.2772 26.0061C16.5812 25.1847 17.0559 24.4727 17.5279 23.7554C17.9226 22.9794 18.6186 22.4541 19.1306 21.7901C19.6666 21.1447 20.3972 20.7154 20.9759 20.1794C21.5439 19.6194 22.2879 19.3394 22.8799 18.9447C23.4986 18.5901 24.0372 18.1981 24.6132 18.0114L26.0506 17.4194L27.3146 16.8941L26.0212 11.7261L24.4292 12.1101C23.9199 12.2381 23.2986 12.3874 22.5919 12.5661C21.8692 12.6994 21.0986 13.0647 20.2399 13.3981C19.3919 13.7767 18.4106 14.0327 17.4986 14.6407C16.5812 15.2221 15.5226 15.7074 14.5892 16.4861C13.6852 17.2887 12.5946 17.9847 11.7892 19.0061C10.9092 19.9607 10.0399 20.9634 9.36523 22.1047C8.5839 23.1927 8.05323 24.3874 7.49323 25.5687C6.98657 26.7501 6.57857 27.9581 6.24523 29.1314C5.61323 31.4834 5.33057 33.7181 5.22123 35.6301C5.13057 37.5447 5.1839 39.1367 5.2959 40.2887C5.3359 40.8327 5.41057 41.3607 5.4639 41.7261L5.53057 42.1741L5.5999 42.1581C6.0742 44.3736 7.16604 46.4096 8.74914 48.0306C10.3322 49.6515 12.3419 50.7911 14.5456 51.3176C16.7493 51.8441 19.0571 51.7359 21.2019 51.0056C23.3467 50.2753 25.241 48.9527 26.6655 47.1908C28.0901 45.4289 28.9867 43.2997 29.2517 41.0495C29.5167 38.7993 29.1392 36.5201 28.1629 34.4755C27.1866 32.4308 25.6515 30.7044 23.735 29.4958C21.8185 28.2872 19.599 27.6459 17.3332 27.6461ZM46.6666 27.6461C46.0719 27.6461 45.5012 27.7367 44.9332 27.8194C45.1172 27.2007 45.3066 26.5714 45.6106 26.0061C45.9146 25.1847 46.3892 24.4727 46.8612 23.7554C47.2559 22.9794 47.9519 22.4541 48.4639 21.7901C48.9999 21.1447 49.7306 20.7154 50.3092 20.1794C50.8772 19.6194 51.6212 19.3394 52.2132 18.9447C52.8319 18.5901 53.3706 18.1981 53.9466 18.0114L55.3839 17.4194L56.6479 16.8941L55.3546 11.7261L53.7626 12.1101C53.2532 12.2381 52.6319 12.3874 51.9252 12.5661C51.2026 12.6994 50.4319 13.0647 49.5732 13.3981C48.7279 13.7794 47.7439 14.0327 46.8319 14.6434C45.9146 15.2247 44.8559 15.7101 43.9226 16.4887C43.0186 17.2914 41.9279 17.9874 41.1226 19.0061C40.2426 19.9607 39.3732 20.9634 38.6986 22.1047C37.9172 23.1927 37.3866 24.3874 36.8266 25.5687C36.3199 26.7501 35.9119 27.9581 35.5786 29.1314C34.9466 31.4834 34.6639 33.7181 34.5546 35.6301C34.4639 37.5447 34.5172 39.1367 34.6292 40.2887C34.6692 40.8327 34.7439 41.3607 34.7972 41.7261L34.8639 42.1741L34.9332 42.1581C35.4075 44.3736 36.4994 46.4096 38.0825 48.0306C39.6656 49.6515 41.6752 50.7911 43.8789 51.3176C46.0827 51.8441 48.3904 51.7359 50.5352 51.0056C52.6801 50.2753 54.5743 48.9527 55.9989 47.1908C57.4234 45.4289 58.32 43.2997 58.585 41.0495C58.85 38.7993 58.4725 36.5201 57.4963 34.4755C56.52 32.4308 54.9848 30.7044 53.0683 29.4958C51.1518 28.2872 48.9323 27.6459 46.6666 27.6461Z" fill="#781E41"/>
</svg>
