<svg width="64" height="64" viewBox="0 0 64 64" fill="none" xmlns="http://www.w3.org/2000/svg">
<path d="M58.5331 23.256L58.4665 22.808L58.3971 22.824C57.9233 20.6081 56.8317 18.5716 55.2487 16.9502C53.6657 15.3289 51.656 14.1888 49.4521 13.6621C47.2481 13.1353 44.9401 13.2433 42.795 13.9736C40.6499 14.7039 38.7555 16.0266 37.3308 17.7888C35.9061 19.5509 35.0095 21.6804 34.7447 23.9309C34.4798 26.1813 34.8576 28.4608 35.8343 30.5055C36.811 32.5502 38.3466 34.2766 40.2636 35.4849C42.1806 36.6932 44.4005 37.3341 46.6665 37.3333C47.2611 37.3333 47.8318 37.2426 48.3998 37.16C48.2158 37.7786 48.0265 38.408 47.7225 38.9733C47.4185 39.7946 46.9438 40.5066 46.4718 41.224C46.0771 42 45.3811 42.5253 44.8691 43.1893C44.3331 43.8346 43.6025 44.264 43.0238 44.8C42.4558 45.36 41.7118 45.64 41.1198 46.0346C40.5011 46.3893 39.9625 46.7813 39.3865 46.968L37.9491 47.56L36.6851 48.0853L37.9758 53.256L39.5678 52.872C40.0771 52.744 40.6985 52.5946 41.4051 52.416C42.1278 52.2826 42.8985 51.9173 43.7571 51.584C44.6025 51.2026 45.5865 50.9493 46.4985 50.3386C47.4158 49.7573 48.4745 49.272 49.4078 48.4933C50.3118 47.6906 51.4025 46.9946 52.2078 45.976C53.0878 45.0213 53.9571 44.0186 54.6318 42.8773C55.4131 41.7893 55.9438 40.5946 56.5038 39.4133C57.0105 38.232 57.4185 37.024 57.7518 35.8506C58.3838 33.4986 58.6665 31.264 58.7758 29.352C58.8665 27.4373 58.8131 25.8453 58.7011 24.6933C58.6637 24.2122 58.6076 23.7327 58.5331 23.256ZM29.1998 23.256L29.1331 22.808L29.0638 22.824C28.59 20.6081 27.4984 18.5716 25.9154 16.9502C24.3324 15.3289 22.3227 14.1888 20.1187 13.6621C17.9148 13.1353 15.6068 13.2433 13.4617 13.9736C11.3166 14.7039 9.42212 16.0266 7.99746 17.7888C6.5728 19.5509 5.67618 21.6804 5.41134 23.9309C5.14651 26.1813 5.52429 28.4608 6.50097 30.5055C7.47765 32.5502 9.01332 34.2766 10.9303 35.4849C12.8472 36.6932 15.0671 37.3341 17.3331 37.3333C17.9278 37.3333 18.4985 37.2426 19.0665 37.16C18.8825 37.7786 18.6931 38.408 18.3891 38.9733C18.0851 39.7946 17.6105 40.5066 17.1385 41.224C16.7438 42 16.0478 42.5253 15.5358 43.1893C14.9998 43.8346 14.2691 44.264 13.6905 44.8C13.1225 45.36 12.3785 45.64 11.7865 46.0346C11.1678 46.3893 10.6291 46.7813 10.0531 46.968L8.61581 47.56C7.81314 47.888 7.35448 48.08 7.35448 48.08L8.64514 53.2506L10.2371 52.8666C10.7465 52.7387 11.3678 52.5893 12.0745 52.4106C12.7971 52.2773 13.5678 51.912 14.4265 51.5786C15.2718 51.1973 16.2558 50.944 17.1678 50.3333C18.0851 49.752 19.1438 49.2666 20.0771 48.488C20.9811 47.6853 22.0718 46.9893 22.8771 45.9706C23.7571 45.016 24.6265 44.0133 25.3011 42.872C26.0825 41.784 26.6131 40.5893 27.1731 39.408C27.6798 38.2266 28.0878 37.0186 28.4211 35.8453C29.0531 33.4933 29.3358 31.2586 29.4451 29.3466C29.5358 27.432 29.4825 25.84 29.3705 24.688C29.3307 24.2088 29.2737 23.7311 29.1998 23.256Z" fill="#FFFAFC"/>
</svg>
