<svg width="64" height="65" viewBox="0 0 64 65" fill="none" xmlns="http://www.w3.org/2000/svg">
<path d="M58.5334 24.2352L58.4667 23.7872L58.3974 23.8032C57.9235 21.5873 56.832 19.5508 55.249 17.9294C53.666 16.3081 51.6562 15.168 49.4523 14.6413C47.2484 14.1145 44.9404 14.2225 42.7953 14.9528C40.6502 15.6831 38.7557 17.0058 37.331 18.7679C35.9064 20.5301 35.0098 22.6596 34.7449 24.91C34.4801 27.1605 34.8579 29.44 35.8345 31.4847C36.8112 33.5294 38.3469 35.2558 40.2639 36.4641C42.1808 37.6724 44.4007 38.3133 46.6667 38.3125C47.2614 38.3125 47.8321 38.2218 48.4001 38.1392C48.2161 38.7578 48.0267 39.3872 47.7227 39.9525C47.4187 40.7738 46.9441 41.4858 46.4721 42.2032C46.0774 42.9792 45.3814 43.5045 44.8694 44.1685C44.3334 44.8138 43.6027 45.2432 43.0241 45.7792C42.4561 46.3392 41.7121 46.6192 41.1201 47.0138C40.5014 47.3685 39.9627 47.7605 39.3867 47.9472L37.9494 48.5392L36.6854 49.0645L37.9761 54.2352L39.5681 53.8512C40.0774 53.7232 40.6987 53.5738 41.4054 53.3952C42.1281 53.2618 42.8987 52.8965 43.7574 52.5632C44.6027 52.1818 45.5867 51.9285 46.4987 51.3178C47.4161 50.7365 48.4747 50.2512 49.4081 49.4725C50.3121 48.6698 51.4027 47.9738 52.208 46.9552C53.0881 46.0005 53.9574 44.9978 54.6321 43.8565C55.4134 42.7685 55.944 41.5738 56.5041 40.3925C57.0107 39.2112 57.4187 38.0032 57.7521 36.8298C58.3841 34.4778 58.6667 32.2432 58.7761 30.3312C58.8667 28.4165 58.8134 26.8245 58.7014 25.6725C58.6639 25.1914 58.6079 24.7119 58.5334 24.2352ZM29.2001 24.2352L29.1334 23.7872L29.0641 23.8032C28.5902 21.5873 27.4986 19.5508 25.9156 17.9294C24.3326 16.3081 22.3229 15.168 20.119 14.6413C17.9151 14.1145 15.607 14.2225 13.4619 14.9528C11.3168 15.6831 9.42237 17.0058 7.9977 18.7679C6.57304 20.5301 5.67642 22.6596 5.41159 24.91C5.14676 27.1605 5.52454 29.44 6.50122 31.4847C7.4779 33.5294 9.01356 35.2558 10.9305 36.4641C12.8475 37.6724 15.0674 38.3133 17.3334 38.3125C17.9281 38.3125 18.4987 38.2218 19.0667 38.1392C18.8827 38.7578 18.6934 39.3872 18.3894 39.9525C18.0854 40.7738 17.6107 41.4858 17.1387 42.2032C16.7441 42.9792 16.0481 43.5045 15.5361 44.1685C15.0001 44.8138 14.2694 45.2432 13.6907 45.7792C13.1227 46.3392 12.3787 46.6192 11.7867 47.0138C11.1681 47.3685 10.6294 47.7605 10.0534 47.9472L8.61606 48.5392C7.81339 48.8672 7.35472 49.0592 7.35472 49.0592L8.64539 54.2298L10.2374 53.8458C10.7467 53.7178 11.3681 53.5685 12.0747 53.3898C12.7974 53.2565 13.5681 52.8912 14.4267 52.5578C15.2721 52.1765 16.2561 51.9232 17.1681 51.3125C18.0854 50.7312 19.1441 50.2458 20.0774 49.4672C20.9814 48.6645 22.0721 47.9685 22.8774 46.9498C23.7574 45.9952 24.6267 44.9925 25.3014 43.8512C26.0827 42.7632 26.6134 41.5685 27.1734 40.3872C27.6801 39.2058 28.0881 37.9978 28.4214 36.8245C29.0534 34.4725 29.3361 32.2378 29.4454 30.3258C29.5361 28.4112 29.4827 26.8192 29.3707 25.6672C29.3309 25.188 29.274 24.7103 29.2001 24.2352Z" fill="#781E41"/>
</svg>
