<svg width="24" height="24" viewBox="0 0 24 24" fill="none" xmlns="http://www.w3.org/2000/svg">
<path d="M21.5781 7.18571C21.4643 6.76289 21.2414 6.37737 20.9318 6.06774C20.6222 5.75811 20.2367 5.53524 19.8139 5.42143C18.2568 5 12 5 12 5C12 5 5.74319 5 4.18613 5.42143C3.76333 5.53524 3.37783 5.75811 3.06822 6.06774C2.75861 6.37737 2.53575 6.76289 2.42194 7.18571C2.13121 8.77376 1.99012 10.3856 2.00054 12C1.99012 13.6144 2.13121 15.2262 2.42194 16.8143C2.53575 17.2371 2.75861 17.6226 3.06822 17.9323C3.37783 18.2419 3.76333 18.4648 4.18613 18.5786C5.74319 19 12 19 12 19C12 19 18.2568 19 19.8139 18.5786C20.2367 18.4648 20.6222 18.2419 20.9318 17.9323C21.2414 17.6226 21.4643 17.2371 21.5781 16.8143C21.8688 15.2262 22.0099 13.6144 21.9995 12C22.0099 10.3856 21.8688 8.77376 21.5781 7.18571ZM10.0001 15V9L15.1927 12L10.0001 15Z" fill="#E4D7DD"/>
</svg>
